<?xml version="1.0" encoding="UTF-8"?>
<svg id="Layer_2" xmlns="http://www.w3.org/2000/svg" version="1.1" viewBox="0 0 1296 1728">
  <!-- Generator: Adobe Illustrator 30.1.0, SVG Export Plug-In . SVG Version: 2.1.1 Build 136)  -->
  <path d="M381.9,1009.1c0,.8-.4,1.6-1,2.2s-1.2,1.2-1.6,1.9-.5,1.7,0,2.4c.4.5,1.1.6,1.7.5s1.1-.5,1.6-.8c1.2-.9,2.2-2.1,2.8-3.4.3-.6.6-1.2.6-1.9s-.2-1.4-.8-1.8" display="none" fill="none" stroke="#000" stroke-linecap="round" stroke-miterlimit="10" stroke-width="1.5"/>
  <path d="M382.2,1025.8c-2.9-1.3-6.1-6.8-3-9.3.7-.5,1.8-.3,2.6-.5.8-.3,1.6-1,2.3-.6.3.2.6.5.5.8-.7,3.9,4.5,7,8.4,7" display="none" fill="none" stroke="#000" stroke-linecap="round" stroke-miterlimit="10" stroke-width="1.5"/>
  <path d="M706.4,482.5c-6.6-4-24.9-6.2-27.3,3.6" fill="none" stroke="#fff" stroke-linecap="round" stroke-miterlimit="10" stroke-width="1.5"/>
  <path d="M684.5,481c-.6,2.4,2.6,3.6,4.5,2.9,1.1-.2,2.2-.7,2.7-1.7.4-.8.2-1.9-.8-2.1-1.4-.4-6.3-.4-5.7,1.9,1,1.5,3.5,1.5,4.9.7.7-.3,1-1.2.3-1.6-1-.6-3.1-.6-4.1.2-.2,1,2.5,1,3.1.6.2-.3-1.1-.3-1.3-.2" fill="none" stroke="#fff" stroke-linecap="round" stroke-miterlimit="10" stroke-width="1.5"/>
  <path d="M656.9,490.4c-5.5-8.9-18.2-8.5-25.9-3.2-1.3.8-2.4,2.3-.9,3.6" fill="none" stroke="#fff" stroke-linecap="round" stroke-miterlimit="10" stroke-width="1.5"/>
  <path d="M634.7,485.9c.5,1.2,1,2.5,1.8,3.6,1.3,1.8,4.2,1.5,5.7,0,1.3-1.2,2-3.8.2-4.9-1.3-.7-3.2-.5-4.6-.2-2.9.5-2.7,2.9-.8,4.5,1.7,1.7,5.9.2,5.6-2.4-.6-2-4.3-2-5.6-.8-1.1,1.8,1.4,3.3,3.2,2.9,1.8-.3,1.6-2.4,0-2.8-1.1-.4-2.7.7-1.6,1.4.5.3,2.4.4,1.8-.6" fill="none" stroke="#fff" stroke-linecap="round" stroke-miterlimit="10" stroke-width="1.5"/>
  <path d="M639,486.7h.6" fill="none" stroke="#fff" stroke-linecap="round" stroke-miterlimit="10" stroke-width="1.5"/>
</svg>