<?xml version="1.0" encoding="UTF-8"?>
<svg id="Layer_2" xmlns="http://www.w3.org/2000/svg" version="1.1" viewBox="0 0 1296 1728">
  <!-- Generator: Adobe Illustrator 30.1.0, SVG Export Plug-In . SVG Version: 2.1.1 Build 136)  -->
  <path d="M297.9,286c-1.6,0-4.7-.6-5.8,1.5s-1.5,1.7-.2,5.3,2.8,9.3,2.7,17.8c-.1,8.5-.2,25.8-.1,26.2,0,0,.2.6.4.8s1.1.5,1.4.1.4-.4.4-1c0,0,.6-40.4.4-40.6s-.6-1.3-.5-1.5,1.8-6,2-6.8.2-1.2-.1-1.4-.7-.3-.7-.3Z" fill="#fff"/>
  <path d="M438.9,286c-1.6,0-4.7-.6-5.8,1.5s-1.5,1.7-.2,5.3,2.8,9.3,2.7,17.8-.2,25.8-.1,26.2c0,0,.2.6.4.8s1.1.5,1.4.1.4-.4.4-1c0,0,.6-40.4.4-40.6s-.6-1.3-.5-1.5,1.8-6,2-6.8.2-1.2-.1-1.4-.7-.3-.7-.3Z" fill="#fff"/>
  <path d="M822.4,286c-1.6,0-4.7-.6-5.8,1.5s-1.5,1.7-.2,5.3,2.8,9.3,2.7,17.8c-.1,8.5-.2,25.8-.1,26.2,0,0,.2.6.4.8s1.1.5,1.4.1.4-.4.4-1c0,0,.6-40.4.4-40.6s-.6-1.3-.5-1.5,1.8-6,2-6.8.2-1.2-.1-1.4-.7-.3-.7-.3Z" fill="#fff"/>
  <path d="M858,286c-1.6,0-4.7-.6-5.8,1.5s-1.5,1.7-.2,5.3,2.8,9.3,2.7,17.8c-.1,8.5-.2,25.8-.1,26.2,0,0,.2.6.4.8s1.1.5,1.4.1.4-.4.4-1c0,0,.6-40.4.4-40.6s-.6-1.3-.5-1.5,1.8-6,2-6.8.2-1.2-.1-1.4-.7-.3-.7-.3Z" fill="#fff"/>
  <path d="M590.6,389.8c-1.6,0-4.7-.6-5.8,1.5s-1.5,1.7-.2,5.3,2.8,9.3,2.7,17.8c-.1,8.5-.2,25.8-.1,26.2,0,0,.2.6.4.8s1.1.5,1.4.1.4-.4.4-1c0,0,.6-40.4.4-40.6s-.6-1.3-.5-1.5,1.8-6,2-6.8.2-1.2-.1-1.4-.7-.3-.7-.3Z" fill="#fff"/>
  <path d="M753.9,492.9c-1.6,0-4.7-.6-5.8,1.5s-1.5,1.7-.2,5.3,2.8,9.3,2.7,17.8c-.1,8.5-.2,25.8-.1,26.2,0,0,.2.6.4.8s1.1.5,1.4.1.4-.4.4-1c0,0,.6-40.4.4-40.6s-.6-1.3-.5-1.5,1.8-6,2-6.8.2-1.2-.1-1.4-.7-.3-.7-.3Z" fill="#fff"/>
  <path d="M832.7,492.9c-1.6,0-4.7-.6-5.8,1.5s-1.5,1.7-.2,5.3,2.8,9.3,2.7,17.8c-.1,8.5-.2,25.8-.1,26.2,0,0,.2.6.4.8s1.1.5,1.4.1.4-.4.4-1c0,0,.6-40.4.4-40.6s-.6-1.3-.5-1.5,1.8-6,2-6.8.2-1.2-.1-1.4-.7-.3-.7-.3Z" fill="#fff"/>
  <path d="M844,492.9c-1.6,0-4.7-.6-5.8,1.5s-1.5,1.7-.2,5.3,2.8,9.3,2.7,17.8c-.1,8.5-.2,25.8-.1,26.2,0,0,.2.6.4.8s1.1.5,1.4.1.4-.4.4-1c0,0,.6-40.4.4-40.6s-.6-1.3-.5-1.5,1.8-6,2-6.8.2-1.2-.1-1.4-.7-.3-.7-.3Z" fill="#fff"/>
  <path d="M275.2,300.3c0-.9-.2-2.1-1.2-2.6-1.5-.9-4.9-2.1-5.3-4.2-.5-2,1.6-2.1,3.1-2,1.4,0,3,.2,4.3.8,3.6,1.8,6,7.1,4,10.9-.5,1.2-1.5,2.1-2.7,2.6-6,3.3-16.6-2.5-21.1-5.3-1.2-.8-3.2-2.4-4.1-3.2-.5-.5-.7-1.2-.9-2.1-.5-2.8-1.8-6.1-4.3-7.7-6.7-3.9-13.2-2.2-15.4,5.9-.8,2.4,0,4.7,1.7,6.6,1.7,2.3,4,4.1,6.8,3.2,2.5-.9,2.3-4.9-.3-5.9-1.7-.9-3.7-1.7-4.4-2.8-1.2-2.2.8-3.4,2.9-3.1,3.3.5,6.9,1.9,8,5.1,1,3.3.6,8.6-3.5,9.4-3.5,1.1-10,.8-14.3-2.2-6-3.5-18.9-10.9-23.7-13.4-3.8-1.7-9.8-4.7-13-4.6-1.1.2-1.1,1.5-.3,2.1,4.4,2.4,10,4.9,15.3,8.2,5.9,3.8,11.9,8.9,18.9,13,5.9,3.9,13,4.3,18.9.8,2.4-1.4,4.5-4.1,5.6-6.5.6-1.1.5-1.4.9-1,3.4,3.5,8.4,8,13.5,8.8,3.1.9,6.8,1.6,9.9.6,4.8-1.8,8.9-6,10-10.7.7-4.1-.4-11.9-4.9-14.1-4.2-2-11.6-1.9-13.8,3.3-1.6,3-1.1,8.6.9,10.6,1.1,1.3,3.3,2.7,5.1,3.3,2,.4,2.9-2.2,3-3.6h0Z" fill="#fff"/>
  <path d="M280.5,310.1c1-1,2.3-2.4,3.2-3.4,1.1-1.2,1.5.2,1.5,1.2-2.7,3.9-6.6,8.5-10.9,10.9-.9.4-1.7.7-2.6.8-5.6.8-9.5,1.2-14.4-3.7-2.1-2-4.2-4.2-6-5.3-2.1,2.2-4.8,5.2-9.1,7.2-4.2,1.9-8.1,3.4-12.8,1.8-5.4-1.8-14.3-10.4-14.4-10.7-.4-.7-.2-2.3-.2-3.3.2-.5.7-1.1,1.3-.5,4.3,3.5,9.5,7.7,15.1,8.8,3,.7,5.8.9,9.5-.6,1-.4,2.2-.9,3.1-1.4,1.8-.9,3-2.5,4.9-4.5,1.4-1.6,2.8-3.3,4.8-1.5.7.5,1.2,1.1,1.8,1.7,3.1,3.5,7.3,5.9,10.6,6.7,4.7,1.1,10.5-.1,14.3-4h.1Z" fill="#fff"/>
  <path d="M416.6,270.5c2.6-.7,5.3-1.4,7.8-2.2.4,0,.9.2.8.7-.5,1.8-3.2,2.8-4.6,3.7-2.4,1.4-4.9,2.8-7.8,3.4-3.5.9-7,.2-10.3,1.2-2.2.5-3.5,2.2-4.1,4.3-.2.7-.4,1.3-.5,1.8-.3,1.4-1.9,1.4-2.8.4-1.1-1.1-1.5-2.4-3.5-3.3-1.3-.6-2.5-.7-3.9-.7-2.3-.3-5.7.7-6.4-1.7,0-1.5,1.1-3.2,1.9-4.5,1.6-2.3,4.2-2,6.2-.6,2.6,1.8,4,3.3,5.5,5.1,1.9,2,2.9-2.1,3.8-3.2,1.1-1.5,2.8-2.4,4.4-3.2,4.1-1.2,9.1,0,13.1-1h.1Z" fill="#fff"/>
  <path d="M597.1,270.5c2.6-.7,5.3-1.4,7.8-2.2.4,0,.9.2.8.7-.5,1.8-3.2,2.8-4.6,3.7-2.4,1.4-4.9,2.8-7.8,3.4-3.5.9-7,.2-10.3,1.2-2.2.5-3.5,2.2-4.1,4.3-.2.7-.4,1.3-.5,1.8-.3,1.4-1.9,1.4-2.8.4-1.1-1.1-1.5-2.4-3.5-3.3-1.3-.6-2.5-.7-3.9-.7-2.3-.3-5.7.7-6.4-1.7,0-1.5,1.1-3.2,1.9-4.5,1.6-2.3,4.2-2,6.2-.6,2.6,1.8,4,3.3,5.5,5.1,1.9,2,2.9-2.1,3.8-3.2,1.1-1.5,2.8-2.4,4.4-3.2,4.1-1.2,9.1,0,13.1-1h.1Z" fill="#fff"/>
  <path d="M631.4,270.5c2.6-.7,5.3-1.4,7.8-2.2.4,0,.9.2.8.7-.5,1.8-3.2,2.8-4.6,3.7-2.4,1.4-4.9,2.8-7.8,3.4-3.5.9-7,.2-10.3,1.2-2.2.5-3.5,2.2-4.1,4.3-.2.7-.4,1.3-.5,1.8-.3,1.4-1.9,1.4-2.8.4-1.1-1.1-1.5-2.4-3.5-3.3-1.3-.6-2.5-.7-3.9-.7-2.3-.3-5.7.7-6.4-1.7,0-1.5,1.1-3.2,1.9-4.5,1.6-2.3,4.2-2,6.2-.6,2.6,1.8,4,3.3,5.5,5.1,1.9,2,2.9-2.1,3.8-3.2,1.1-1.5,2.8-2.4,4.4-3.2,4.1-1.2,9.1,0,13.1-1h.1Z" fill="#fff"/>
  <path d="M902.7,271.9c2.6-.7,5.3-1.4,7.8-2.2.4,0,.9.2.8.7-.5,1.8-3.2,2.8-4.6,3.7-2.4,1.4-4.9,2.8-7.8,3.4-3.5.9-7,.2-10.3,1.2-2.2.5-3.5,2.2-4.1,4.3-.2.7-.4,1.3-.5,1.8-.3,1.4-1.9,1.4-2.8.4-1.1-1.1-1.5-2.4-3.5-3.3-1.3-.6-2.5-.7-3.9-.7-2.3-.3-5.7.7-6.4-1.7,0-1.5,1.1-3.2,1.9-4.5,1.6-2.3,4.2-2,6.2-.6,2.6,1.8,4,3.3,5.5,5.1,1.9,2,2.9-2.1,3.8-3.2,1.1-1.5,2.8-2.4,4.4-3.2,4.1-1.2,9.1,0,13.1-1h.1Z" fill="#fff"/>
  <path d="M985.5,268.9c2.6-.7,5.3-1.4,7.8-2.2.4,0,.9.2.8.7-.5,1.8-3.2,2.8-4.6,3.7-2.4,1.4-4.9,2.8-7.8,3.4-3.5.9-7,.2-10.3,1.2-2.2.5-3.5,2.2-4.1,4.3-.2.7-.4,1.3-.5,1.8-.3,1.4-1.9,1.4-2.8.4-1.1-1.1-1.5-2.4-3.5-3.3-1.3-.6-2.5-.7-3.9-.7-2.3-.3-5.7.7-6.4-1.7,0-1.5,1.1-3.2,1.9-4.5,1.6-2.3,4.2-2,6.2-.6,2.6,1.8,4,3.3,5.5,5.1,1.9,2,2.9-2.1,3.8-3.2,1.1-1.5,2.8-2.4,4.4-3.2,4.1-1.2,9.1,0,13.1-1h.1Z" fill="#fff"/>
  <path d="M828.5,478.4c2.6-.7,5.3-1.4,7.8-2.2.4,0,.9.2.8.7-.5,1.8-3.2,2.8-4.6,3.7-2.4,1.4-4.9,2.8-7.8,3.4-3.5.9-7,.2-10.3,1.2-2.2.5-3.5,2.2-4.1,4.3-.2.7-.4,1.3-.5,1.8-.3,1.4-1.9,1.4-2.8.4-1.1-1.1-1.5-2.4-3.5-3.3-1.3-.6-2.5-.7-3.9-.7-2.3-.3-5.7.7-6.4-1.7,0-1.5,1.1-3.2,1.9-4.5,1.6-2.3,4.2-2,6.2-.6,2.6,1.8,4,3.3,5.5,5.1,1.9,2,2.9-2.1,3.8-3.2,1.1-1.5,2.8-2.4,4.4-3.2,4.1-1.2,9.1,0,13.1-1h.1Z" fill="#fff"/>
  <path d="M514.4,270.7c.9-1.4,1.6-1.6,3.2-1.1,2.3.5,5,1.3,7,2.6,3.8,3.2,7.1,7.5,9.6,11.4.4.9-.4,1.8-1.4,1.1-2.5-2.2-7.1-7-11.6-8.5-2.3-.7-4.9-.8-7.2-1.5-.4-.1-.8-.3-1-.6-.5-1,.8-2.4,1.3-3.2h0Z" fill="#fff"/>
  <path d="M659.2,270.7c.9-1.4,1.6-1.6,3.2-1.1,2.3.5,5,1.3,7,2.6,3.8,3.2,7.1,7.5,9.6,11.4.4.9-.4,1.8-1.4,1.1-2.5-2.2-7.1-7-11.6-8.5-2.3-.7-4.9-.8-7.2-1.5-.4-.1-.8-.3-1-.6-.5-1,.8-2.4,1.3-3.2h0Z" fill="#fff"/>
  <path d="M578.6,476.6c.9-1.4,1.6-1.6,3.2-1.1,2.3.5,5,1.3,7,2.6,3.8,3.2,7.1,7.5,9.6,11.4.4.9-.4,1.8-1.4,1.1-2.5-2.2-7.1-7-11.6-8.5-2.3-.7-4.9-.8-7.2-1.5-.4-.1-.8-.3-1-.6-.5-1,.8-2.4,1.3-3.2h0Z" fill="#fff"/>
  <path d="M714.7,272.4c2.1-2.5,6.4-5.4,9.4-2.9,3.1,2.2,7.1,7.6,9.4,10.8,1.4,2,3.2,4.4,4.1,6.5.3.9-.6,1.5-1.2.7-1.1-1.2-4-4.4-6.7-7.1-14.1-14-17.1-2.2-9.7-2.4.2,0,.8-.2,1-.3,2.9-1.2,1.6,2.9.7,4.2-1.6,2.7-5.3,3-7.5.9-1.6-1.5-2.3-4.4-1.9-6.2.3-1.5,1.6-3.1,2.4-4.3h0Z" fill="#fff"/>
  <path d="M768.5,272.4c2.1-2.5,6.4-5.4,9.4-2.9,3.1,2.2,7.1,7.6,9.4,10.8,1.4,2,3.2,4.4,4.1,6.5.3.9-.6,1.5-1.2.7-1.1-1.2-4-4.4-6.7-7.1-14.1-14-17.1-2.2-9.7-2.4.2,0,.8-.2,1-.3,2.9-1.2,1.6,2.9.7,4.2-1.6,2.7-5.3,3-7.5.9-1.6-1.5-2.3-4.4-1.9-6.2.3-1.5,1.6-3.1,2.4-4.3h0Z" fill="#fff"/>
  <path d="M834.7,272.4c2.1-2.5,6.4-5.4,9.4-2.9,3.1,2.2,7.1,7.6,9.4,10.8,1.4,2,3.2,4.4,4.1,6.5.3.9-.6,1.5-1.2.7-1.1-1.2-4-4.4-6.7-7.1-14.1-14-17.1-2.2-9.7-2.4.2,0,.8-.2,1-.3,2.9-1.2,1.6,2.9.7,4.2-1.6,2.7-5.3,3-7.5.9-1.6-1.5-2.3-4.4-1.9-6.2.3-1.5,1.6-3.1,2.4-4.3h0Z" fill="#fff"/>
  <path d="M989.2,274.2c2.1-2.5,6.4-5.4,9.4-2.9,3.1,2.2,7.1,7.6,9.4,10.8,1.4,2,3.2,4.4,4.1,6.5.3.9-.6,1.5-1.2.7-1.1-1.2-4-4.4-6.7-7.1-14.1-14-17.1-2.2-9.7-2.4.2,0,.8-.2,1-.3,2.9-1.2,1.6,2.9.7,4.2-1.6,2.7-5.3,3-7.5.9-1.6-1.5-2.3-4.4-1.9-6.2.3-1.5,1.6-3.1,2.4-4.3h0Z" fill="#fff"/>
  <path d="M472.9,288.7c.4.7,1.2,2.2,1.6,2.7.2.3.9.5,1.4.2.3-.1.6-.4.8-.7.6-1,1.1-2.1,1.5-2.7.2-.4.4-.8.2-1.1-.2-.5-1-.8-1.4-.9-1.6-.4-4.8.2-4.1,2.4v.2Z" fill="#fff"/>
  <path d="M504.6,288.7c.4.7,1.2,2.2,1.6,2.7.2.3.9.5,1.4.2.3-.1.6-.4.8-.7.6-1,1.1-2.1,1.5-2.7.2-.4.4-.8.2-1.1-.2-.5-1-.8-1.4-.9-1.6-.4-4.8.2-4.1,2.4v.2Z" fill="#fff"/>
  <path d="M559.2,288.7c.4.7,1.2,2.2,1.6,2.7.2.3.9.5,1.4.2.3-.1.6-.4.8-.7.6-1,1.1-2.1,1.5-2.7.2-.4.4-.8.2-1.1-.2-.5-1-.8-1.4-.9-1.6-.4-4.8.2-4.1,2.4v.2Z" fill="#fff"/>
  <path d="M591,288.7c.4.7,1.2,2.2,1.6,2.7.2.3.9.5,1.4.2.3-.1.6-.4.8-.7.6-1,1.1-2.1,1.5-2.7.2-.4.4-.8.2-1.1-.2-.5-1-.8-1.4-.9-1.6-.4-4.8.2-4.1,2.4v.2Z" fill="#fff"/>
  <path d="M649.2,288.7c.4.7,1.2,2.2,1.6,2.7.2.3.9.5,1.4.2.3-.1.6-.4.8-.7.6-1,1.1-2.1,1.5-2.7.2-.4.4-.8.2-1.1-.2-.5-1-.8-1.4-.9-1.6-.4-4.8.2-4.1,2.4v.2Z" fill="#fff"/>
  <path d="M703.8,289c.4.7,1.2,2.2,1.6,2.7.2.3.9.5,1.4.2.3-.1.6-.4.8-.7.6-1,1.1-2.1,1.5-2.7.2-.4.4-.8.2-1.1-.2-.5-1-.8-1.4-.9-1.6-.4-4.8.2-4.1,2.4v.2Z" fill="#fff"/>
  <path d="M763.3,289c.4.7,1.2,2.2,1.6,2.7.2.3.9.5,1.4.2.3-.1.6-.4.8-.7.6-1,1.1-2.1,1.5-2.7.2-.4.4-.8.2-1.1-.2-.5-1-.8-1.4-.9-1.6-.4-4.8.2-4.1,2.4v.2Z" fill="#fff"/>
  <path d="M824.4,289.8c.4.7,1.2,2.2,1.6,2.7.2.3.9.5,1.4.2.3-.1.6-.4.8-.7.6-1,1.1-2.1,1.5-2.7.2-.4.4-.8.2-1.1-.2-.5-1-.8-1.4-.9-1.6-.4-4.8.2-4.1,2.4v.2Z" fill="#fff"/>
  <path d="M860.7,289.8c.4.7,1.2,2.2,1.6,2.7.2.3.9.5,1.4.2.3-.1.6-.4.8-.7.6-1,1.1-2.1,1.5-2.7.2-.4.4-.8.2-1.1-.2-.5-1-.8-1.4-.9-1.6-.4-4.8.2-4.1,2.4v.2Z" fill="#fff"/>
  <path d="M919.5,290.2c.4.7,1.2,2.2,1.6,2.7.2.3.9.5,1.4.2.3-.1.6-.4.8-.7.6-1,1.1-2.1,1.5-2.7.2-.4.4-.8.2-1.1-.2-.5-1-.8-1.4-.9-1.6-.4-4.8.2-4.1,2.4v.2Z" fill="#fff"/>
  <path d="M1013,290.6c.4.7,1.2,2.2,1.6,2.7.2.3.9.5,1.4.2.3-.1.6-.4.8-.7.6-1,1.1-2.1,1.5-2.7.2-.4.4-.8.2-1.1-.2-.5-1-.8-1.4-.9-1.6-.4-4.8.2-4.1,2.4v.2Z" fill="#fff"/>
  <path d="M944,393.7c.4.7,1.2,2.2,1.6,2.7.2.3.9.5,1.4.2.3-.1.6-.4.8-.7.6-1,1.1-2.1,1.5-2.7.2-.4.4-.8.2-1.1-.2-.5-1-.8-1.4-.9-1.6-.4-4.8.2-4.1,2.4v.2Z" fill="#fff"/>
  <path d="M883.4,393.8c.4.7,1.2,2.2,1.6,2.7.2.3.9.5,1.4.2.3-.1.6-.4.8-.7.6-1,1.1-2.1,1.5-2.7.2-.4.4-.8.2-1.1-.2-.5-1-.8-1.4-.9-1.6-.4-4.8.2-4.1,2.4v.2Z" fill="#fff"/>
  <path d="M820.3,393.1c.4.7,1.2,2.2,1.6,2.7.2.3.9.5,1.4.2.3-.1.6-.4.8-.7.6-1,1.1-2.1,1.5-2.7.2-.4.4-.8.2-1.1-.2-.5-1-.8-1.4-.9-1.6-.4-4.8.2-4.1,2.4v.2Z" fill="#fff"/>
  <path d="M758.8,393.1c.4.7,1.2,2.2,1.6,2.7.2.3.9.5,1.4.2.3-.1.6-.4.8-.7.6-1,1.1-2.1,1.5-2.7.2-.4.4-.8.2-1.1-.2-.5-1-.8-1.4-.9-1.6-.4-4.8.2-4.1,2.4v.2Z" fill="#fff"/>
  <path d="M727,393.1c.4.7,1.2,2.2,1.6,2.7.2.3.9.5,1.4.2.3-.1.6-.4.8-.7.6-1,1.1-2.1,1.5-2.7.2-.4.4-.8.2-1.1-.2-.5-1-.8-1.4-.9-1.6-.4-4.8.2-4.1,2.4v.2Z" fill="#fff"/>
  <path d="M649.4,392.4c.4.7,1.2,2.2,1.6,2.7.2.3.9.5,1.4.2.3-.1.6-.4.8-.7.6-1,1.1-2.1,1.5-2.7.2-.4.4-.8.2-1.1-.2-.5-1-.8-1.4-.9-1.6-.4-4.8.2-4.1,2.4v.2Z" fill="#fff"/>
  <path d="M592.9,392.4c.4.7,1.2,2.2,1.6,2.7.2.3.9.5,1.4.2.3-.1.6-.4.8-.7.6-1,1.1-2.1,1.5-2.7.2-.4.4-.8.2-1.1-.2-.5-1-.8-1.4-.9-1.6-.4-4.8.2-4.1,2.4v.2Z" fill="#fff"/>
  <path d="M524.5,392.4c.4.7,1.2,2.2,1.6,2.7.2.3.9.5,1.4.2.3-.1.6-.4.8-.7.6-1,1.1-2.1,1.5-2.7.2-.4.4-.8.2-1.1-.2-.5-1-.8-1.4-.9-1.6-.4-4.8.2-4.1,2.4v.2Z" fill="#fff"/>
  <path d="M475.6,374.9c2.1-2.5,6.4-5.4,9.4-2.9,3.1,2.2,7.1,7.6,9.4,10.8,1.4,2,3.2,4.4,4.1,6.5.3.9-.6,1.5-1.2.7-1.1-1.2-4-4.4-6.7-7.1-14.1-14-17.1-2.2-9.7-2.4.2,0,.8-.2,1-.3,2.9-1.2,1.6,2.9.7,4.2-1.6,2.7-5.3,3-7.5.9-1.6-1.5-2.3-4.4-1.9-6.2.3-1.5,1.6-3.1,2.4-4.3h0Z" fill="#fff"/>
  <path d="M537.5,374.9c2.1-2.5,6.4-5.4,9.4-2.9,3.1,2.2,7.1,7.6,9.4,10.8,1.4,2,3.2,4.4,4.1,6.5.3.9-.6,1.5-1.2.7-1.1-1.2-4-4.4-6.7-7.1-14.1-14-17.1-2.2-9.7-2.4.2,0,.8-.2,1-.3,2.9-1.2,1.6,2.9.7,4.2-1.6,2.7-5.3,3-7.5.9-1.6-1.5-2.3-4.4-1.9-6.2.3-1.5,1.6-3.1,2.4-4.3h0Z" fill="#fff"/>
  <path d="M794.8,375.7c2.1-2.5,6.4-5.4,9.4-2.9,3.1,2.2,7.1,7.6,9.4,10.8,1.4,2,3.2,4.4,4.1,6.5.3.9-.6,1.5-1.2.7-1.1-1.2-4-4.4-6.7-7.1-14.1-14-17.1-2.2-9.7-2.4.2,0,.8-.2,1-.3,2.9-1.2,1.6,2.9.7,4.2-1.6,2.7-5.3,3-7.5.9-1.6-1.5-2.3-4.4-1.9-6.2.3-1.5,1.6-3.1,2.4-4.3h0Z" fill="#fff"/>
  <path d="M410.7,286.1c-.3-.3-.9-.4-1.3-.4-2,0-14.5,0-19.5,0h-.1c-1.2.1-1.8,1-2.5,2.1-.5,1.1-2,2.7-.8,3.7,1.7.6,4.7.2,5.8,2,.5.7,1.3,1.8,0,2.1-.7.2-1.7,0-2.4.2-1.4.3-2.2,1.5-2.7,2.8-.2.8-1.1,1.8-.9,2.7.1.7.9,1.2.9,2-.3,1.4-1.4,3-1.5,4.3-.3,2.1,0,5.1-.3,7.3-.2,1.4-2.3,3-2.1,4.4.2.6,1,.5,1.6.4,4.8-1.4,10.5-1.8,15.2.7,2.5,1.4,4.8,3.9,6.8,5.7.7.5,2.1.3,1.8-.8-.8-1.9-2-2.6-3-4.4-2.6-3.9-6.1-8.1-10.6-8.5-1.1-.1-2.6-.1-3.6.1-1.3.3-3.6,1.6-3.4-.8.4-2.4,4.4-2.3,6.6-2.1,1.9.2,3.3,1.3,5.2,1.1,1,0,2.3,0,3.1-.8,1-1,3.5-3.2,2-4.7-1.3-.8-3-.5-4.7-.7-1.7,0-3.3-.3-4.9-.2-1.2.2-2.5.6-3.6.8-.6.1-1,0-.7-.7.4-1,1.4-1.6,2.5-2.1,1.9-.7,4.7-.3,6.9-.3,4.9.5,6.2-3.7,6.1-7.8.1-.9-.3-1.9,0-2.8.4-.9,1.7-.9,2.6-1.4,1.1-.7,2.9-2.7,1.8-4.1ZM402.2,295.8c0,0-1,.1-.9.1-1.1,0-2.7,0-3.6,0-.4,0-.8-.2-1.1-.7-.8-.9-.6-3.3.8-3.5h.1c.8-.1,1.9-.6,2.5-1.3,1.2-1.7,1.9-1.7,2.5.3.5,1.5,1.9,4.5-.3,5Z" fill="#fff"/>
</svg>