<svg width="512" height="248" viewBox="0 0 512 248" fill="none" xmlns="http://www.w3.org/2000/svg">
<rect width="511.575" height="248" rx="16" fill="#131315"/>
<path d="M18.736 126.82L17.752 130H16.12L20.764 114.736C20.62 114.608 20.476 114.488 20.332 114.376C20.188 114.264 20.028 114.16 19.852 114.064C19.684 113.968 19.484 113.876 19.252 113.788L19.348 113.512L22.696 112.888H22.936L19.54 124.012L19.384 123.988C19.76 123.348 20.152 122.748 20.56 122.188C20.976 121.628 21.4 121.136 21.832 120.712C22.264 120.28 22.708 119.944 23.164 119.704C23.628 119.464 24.096 119.344 24.568 119.344C25.24 119.344 25.704 119.488 25.96 119.776C26.216 120.064 26.344 120.436 26.344 120.892C26.344 121.148 26.304 121.436 26.224 121.756C26.144 122.068 26.028 122.424 25.876 122.824L23.428 129.124L23.416 128.692C23.68 128.7 23.976 128.648 24.304 128.536C24.632 128.416 24.98 128.24 25.348 128.008C25.716 127.776 26.08 127.488 26.44 127.144L26.776 127.48C26.2 128.168 25.664 128.716 25.168 129.124C24.68 129.532 24.228 129.82 23.812 129.988C23.404 130.156 23.02 130.24 22.66 130.24C22.14 130.24 21.82 130.16 21.7 130C21.58 129.848 21.608 129.548 21.784 129.1L24.364 122.488C24.444 122.28 24.508 122.092 24.556 121.924C24.604 121.748 24.628 121.592 24.628 121.456C24.628 121.256 24.56 121.096 24.424 120.976C24.296 120.848 24.06 120.784 23.716 120.784C23.324 120.784 22.888 120.948 22.408 121.276C21.936 121.604 21.46 122.052 20.98 122.62C20.508 123.188 20.076 123.832 19.684 124.552C19.292 125.272 18.976 126.028 18.736 126.82ZM33.8838 129.544L35.1678 125.368H35.2518C34.6678 126.384 34.1398 127.212 33.6678 127.852C33.1958 128.492 32.7598 128.984 32.3598 129.328C31.9598 129.672 31.5838 129.908 31.2318 130.036C30.8798 130.172 30.5238 130.24 30.1638 130.24C29.5958 130.24 29.1838 130.112 28.9277 129.856C28.6718 129.592 28.5438 129.244 28.5438 128.812C28.5438 128.564 28.5838 128.272 28.6638 127.936C28.7518 127.6 28.8758 127.224 29.0358 126.808L31.4238 120.424L31.7358 120.904C31.4718 120.88 31.1638 120.932 30.8118 121.06C30.4598 121.188 30.0838 121.388 29.6838 121.66C29.2918 121.932 28.8998 122.28 28.5078 122.704L28.1357 122.368C28.7118 121.592 29.2438 120.984 29.7318 120.544C30.2198 120.096 30.6798 119.78 31.1118 119.596C31.5438 119.404 31.9558 119.308 32.3478 119.308C32.6998 119.308 32.9518 119.372 33.1038 119.5C33.2638 119.62 33.2998 119.8 33.2118 120.04L30.4998 127.276C30.4358 127.452 30.3838 127.616 30.3438 127.768C30.3118 127.912 30.2958 128.04 30.2958 128.152C30.2958 128.344 30.3558 128.492 30.4758 128.596C30.5958 128.7 30.7918 128.752 31.0638 128.752C31.3998 128.752 31.7838 128.6 32.2158 128.296C32.6478 127.992 33.0838 127.572 33.5238 127.036C33.9718 126.5 34.3918 125.872 34.7838 125.152C35.1758 124.432 35.4998 123.652 35.7558 122.812L36.7758 119.548H38.4318L35.5158 129.028L35.5038 128.68C35.7598 128.72 36.0558 128.688 36.3918 128.584C36.7358 128.472 37.0998 128.296 37.4838 128.056C37.8758 127.808 38.2598 127.504 38.6358 127.144L38.9478 127.492C38.0838 128.54 37.3238 129.26 36.6678 129.652C36.0198 130.044 35.4278 130.24 34.8918 130.24C34.4518 130.24 34.1558 130.18 34.0038 130.06C33.8518 129.948 33.8118 129.776 33.8838 129.544ZM32.3478 116.32L32.7078 115.144H38.5038L38.1438 116.32H32.3478ZM52.7539 129.124L52.7419 128.692C53.0059 128.7 53.3019 128.648 53.6299 128.536C53.9579 128.416 54.3019 128.24 54.6619 128.008C55.0299 127.776 55.3979 127.488 55.7659 127.144L56.0899 127.48C55.5139 128.168 54.9819 128.716 54.4939 129.124C54.0059 129.532 53.5539 129.82 53.1379 129.988C52.7299 130.156 52.3419 130.24 51.9739 130.24C51.4539 130.24 51.1339 130.16 51.0139 130C50.8939 129.848 50.9259 129.548 51.1099 129.1L53.6899 122.44C53.7779 122.232 53.8419 122.052 53.8819 121.9C53.9219 121.74 53.9419 121.596 53.9419 121.468C53.9419 121.26 53.8739 121.096 53.7379 120.976C53.6099 120.856 53.3819 120.796 53.0539 120.796C52.6779 120.796 52.2739 120.944 51.8419 121.24C51.4179 121.536 50.9899 121.948 50.5579 122.476C50.1259 122.996 49.7219 123.596 49.3459 124.276C48.9699 124.956 48.6459 125.68 48.3739 126.448L47.2219 130H45.5419L48.0739 122.356C48.1139 122.236 48.1499 122.124 48.1819 122.02C48.2139 121.916 48.2379 121.816 48.2539 121.72C48.2699 121.624 48.2779 121.536 48.2779 121.456C48.2779 121.248 48.2139 121.088 48.0859 120.976C47.9579 120.856 47.7419 120.796 47.4379 120.796C47.0539 120.796 46.6419 120.952 46.2019 121.264C45.7699 121.576 45.3419 122.012 44.9179 122.572C44.4939 123.124 44.0939 123.764 43.7179 124.492C43.3499 125.22 43.0379 125.992 42.7819 126.808L41.7859 130H40.1299L42.9259 120.892C42.9019 120.876 42.8739 120.864 42.8419 120.856C42.8179 120.84 42.7859 120.832 42.7459 120.832C42.4739 120.832 42.1979 120.892 41.9179 121.012C41.6459 121.132 41.3659 121.348 41.0779 121.66C40.7899 121.972 40.4859 122.412 40.1659 122.98L39.7699 122.812C40.1219 121.916 40.4979 121.216 40.8979 120.712C41.2979 120.2 41.7179 119.84 42.1579 119.632C42.5979 119.424 43.0379 119.32 43.4779 119.32C43.6379 119.32 43.7899 119.332 43.9339 119.356C44.0859 119.372 44.2339 119.396 44.3779 119.428C44.5299 119.46 44.6779 119.5 44.8219 119.548L43.4659 123.928H43.3699C43.9059 123.016 44.3939 122.26 44.8339 121.66C45.2739 121.06 45.6859 120.588 46.0699 120.244C46.4619 119.9 46.8339 119.66 47.1859 119.524C47.5459 119.38 47.9059 119.308 48.2659 119.308C48.8979 119.308 49.3499 119.428 49.6219 119.668C49.8939 119.908 50.0299 120.232 50.0299 120.64C50.0299 120.896 49.9859 121.188 49.8979 121.516C49.8179 121.844 49.7099 122.228 49.5739 122.668L49.3219 123.46H49.2139C49.6779 122.684 50.1179 122.032 50.5339 121.504C50.9499 120.968 51.3499 120.54 51.7339 120.22C52.1179 119.892 52.4899 119.656 52.8499 119.512C53.2099 119.368 53.5659 119.296 53.9179 119.296C54.5659 119.296 55.0219 119.424 55.2859 119.68C55.5499 119.928 55.6819 120.268 55.6819 120.7C55.6819 120.964 55.6379 121.268 55.5499 121.612C55.4699 121.956 55.3379 122.368 55.1539 122.848L52.7539 129.124ZM58.6081 115.456C58.0321 115.456 57.5201 115.352 57.0721 115.144C56.6241 114.936 56.2721 114.632 56.0161 114.232C55.7601 113.832 55.6321 113.344 55.6321 112.768C55.6321 112.688 55.6321 112.608 55.6321 112.528C55.6321 112.432 55.6401 112.336 55.6561 112.24H56.9041C56.9041 112.544 56.9601 112.816 57.0721 113.056C57.2001 113.28 57.4001 113.456 57.6721 113.584C57.9601 113.696 58.3441 113.752 58.8241 113.752C59.5601 113.752 60.1121 113.616 60.4801 113.344C60.8481 113.056 61.0881 112.688 61.2001 112.24H62.5201C62.2641 113.392 61.8001 114.216 61.1281 114.712C60.4561 115.208 59.6161 115.456 58.6081 115.456ZM59.0161 112.432C58.6961 112.432 58.4241 112.336 58.2001 112.144C57.9921 111.936 57.8881 111.656 57.8881 111.304C57.8881 110.888 58.0081 110.528 58.2481 110.224C58.4881 109.92 58.8321 109.768 59.2801 109.768C59.6481 109.768 59.9201 109.864 60.0961 110.056C60.2721 110.248 60.3601 110.512 60.3601 110.848C60.3601 111.344 60.2161 111.736 59.9281 112.024C59.6561 112.296 59.3521 112.432 59.0161 112.432Z" fill="white"/>
<path d="M141.63 189.549C141.159 188.426 140.484 187.35 139.595 186.32C138.702 185.29 137.607 184.351 136.296 183.509C134.983 182.666 133.394 181.988 131.525 181.473C129.654 180.958 127.455 180.702 124.925 180.702C123.898 180.702 122.796 180.889 121.625 181.264C120.454 181.638 119.401 182.059 118.468 182.53C117.814 182.905 117.277 183.135 116.855 183.232C116.431 183.326 116.128 183.373 115.943 183.373C115.662 183.373 115.521 183.185 115.521 182.81C115.521 181.593 115.896 180.26 116.642 178.809C117.392 177.362 118.468 176.028 119.871 174.808C121.275 173.592 122.963 172.585 124.928 171.79C126.893 170.994 129.045 170.597 131.385 170.597C131.854 169.848 132.576 168.773 133.561 167.368C134.542 165.963 135.036 164.748 135.036 163.718C135.036 162.318 134.497 161.195 133.423 160.349C132.347 159.507 131.013 158.852 129.423 158.384C127.829 157.916 126.101 157.588 124.228 157.405C122.359 157.217 120.624 157.124 119.037 157.124C118.099 157.124 117.002 157.171 115.738 157.265C114.472 157.362 113.281 157.592 112.158 157.967C111.035 158.341 110.076 158.832 109.281 159.441C108.486 160.05 108.09 160.918 108.09 162.041C108.09 163.539 108.322 164.872 108.789 166.042C109.26 167.212 109.769 168.265 110.334 169.201C110.897 170.137 111.41 171.002 111.881 171.798C112.348 172.593 112.58 173.319 112.58 173.974C112.58 174.723 112.252 175.588 111.6 176.574C110.944 177.554 110.196 178.47 109.354 179.308C108.512 180.152 107.645 180.875 106.756 181.485C105.865 182.093 105.19 182.397 104.721 182.397C104.533 182.397 104.44 182.119 104.44 181.554C104.44 181.18 104.461 180.595 104.51 179.799C104.557 179.004 104.578 178.325 104.578 177.764C104.578 177.11 104.414 176.361 104.09 175.518C103.762 174.675 103.387 173.789 102.967 172.851C102.543 171.915 102.168 170.932 101.844 169.905C101.516 168.877 101.352 167.891 101.352 166.958C101.352 164.712 101.891 162.395 102.967 160.01C104.041 157.625 105.422 155.471 107.108 153.552C108.792 151.634 110.688 150.067 112.794 148.85C114.901 147.633 116.982 147.025 119.04 147.025H128.587C131.021 144.78 133.106 142.536 134.833 140.29C136.563 138.044 137.433 135.518 137.433 132.71C137.433 130.558 136.962 128.565 136.031 126.744C135.093 124.919 133.853 123.328 132.308 121.971C130.765 120.617 128.988 119.538 126.974 118.742C124.96 117.945 122.927 117.55 120.87 117.55C117.78 117.55 115.325 117.855 113.499 118.463C111.677 119.068 110.152 120.872 108.936 123.866C109.407 124.429 109.965 125.267 110.624 126.39C111.277 127.513 111.935 128.661 112.589 129.829C113.243 130.997 113.829 132.099 114.343 133.128C114.86 134.156 115.21 134.857 115.399 135.232C116.052 136.452 116.38 137.295 116.38 137.759C116.38 138.322 116.099 138.601 115.536 138.601C114.788 138.601 114.157 138.438 113.64 138.111C113.125 137.786 112.539 137.295 111.886 136.636C110.199 135.045 108.565 133.431 106.972 131.793C105.38 130.153 103.743 128.657 102.058 127.301C100.373 125.945 98.62 124.822 96.793 123.932C94.97 123.042 93.027 122.598 90.968 122.598C88.817 122.598 86.873 122.741 85.144 123.019C83.415 123.3 82.033 123.674 81 124.142C81.563 122.177 82.218 120.025 82.968 117.685C83.716 115.345 84.886 113.333 86.476 111.649C88.627 109.125 90.901 106.431 93.288 103.58C95.676 100.726 97.99 98.082 100.235 95.645H93.214C90.873 95.646 89.703 95.318 89.703 94.666C89.703 94.478 89.772 94.245 89.914 93.965C90.056 93.684 90.22 93.402 90.406 93.122L97.143 83.0149H134.063C134.251 83.0149 134.389 83.132 134.484 83.368C134.578 83.6 134.625 83.811 134.625 84.001C134.625 86.247 133.972 88.118 132.66 89.614C131.348 91.11 129.828 92.304 128.097 93.193C126.368 94.085 124.681 94.714 123.044 95.089C121.405 95.463 120.259 95.651 119.606 95.65C117.733 95.747 115.673 96.095 113.427 96.707C111.181 97.313 109.358 98.04 107.952 98.883C105.143 100.474 102.311 102.367 99.46 104.568C96.605 106.768 93.962 108.897 91.527 110.959H92.227C95.038 110.959 97.561 111.938 99.807 113.905C102.053 115.871 104.161 118.021 106.123 120.361C106.777 117.927 107.852 115.755 109.352 113.837C110.85 111.918 112.557 110.304 114.475 108.991C116.395 107.68 118.383 106.678 120.443 105.972C122.503 105.269 124.512 104.919 126.477 104.919C129.288 104.919 131.956 105.434 134.48 106.463C137.006 107.49 139.251 108.942 141.217 110.815C143.182 112.687 144.729 114.912 145.852 117.483C146.973 120.057 147.538 122.887 147.538 125.976C147.538 130.657 146.438 134.632 144.239 137.909C142.04 141.184 139.301 144.225 136.025 147.034H137.991C139.018 147.034 139.721 147.177 140.095 147.458C140.47 147.735 140.658 148.02 140.658 148.3C140.658 148.58 140.589 148.838 140.447 149.071C140.303 149.303 140.186 149.467 140.093 149.561L138.269 151.807C138.55 151.995 138.853 152.415 139.181 153.071C139.509 153.725 139.815 154.474 140.093 155.316C140.373 156.16 140.584 157.004 140.726 157.843C140.87 158.684 140.935 159.434 140.937 160.089C140.935 162.054 140.284 164.09 138.97 166.193C137.658 168.298 136.448 170.006 135.324 171.317C137.194 171.691 138.738 172.463 139.955 173.632C141.173 174.801 142.154 176.183 142.904 177.774C143.651 179.366 144.168 181.096 144.447 182.968C144.728 184.839 144.916 186.664 145.01 188.443C145.291 188.349 145.806 188.302 146.556 188.302C149.549 188.302 152.147 189.355 154.346 191.46C156.543 193.564 157.645 196.725 157.645 200.936C157.645 203.747 157.038 206.551 155.821 209.359C154.604 212.17 152.991 214.695 150.977 216.94C148.963 219.186 146.696 221.01 144.168 222.418C141.642 223.818 139.064 224.522 136.444 224.522C134.383 224.522 132.348 223.89 130.34 222.626C128.327 221.36 126.292 219.726 124.236 217.713C122.174 215.699 120.048 213.385 117.846 210.765C115.647 208.144 113.307 205.5 110.827 202.833C108.347 200.166 105.702 197.565 102.892 195.042C100.082 192.515 97.041 190.269 93.767 188.304C92.83 187.741 91.638 186.991 90.187 186.058C88.739 185.123 87.827 184.467 87.454 184.092C87.079 183.718 86.891 183.391 86.891 183.11C86.891 182.833 86.986 182.526 87.17 182.199C87.358 181.873 87.733 181.71 88.293 181.71C88.666 181.71 89.231 181.921 89.979 182.342C90.729 182.763 91.709 183.206 92.928 183.675C99.289 186.389 104.741 189.501 109.282 193.011C113.82 196.52 117.935 199.865 121.636 203.048C125.33 206.23 128.819 208.92 132.093 211.117C135.367 213.315 138.925 214.418 142.763 214.418C143.416 214.418 144.213 214.348 145.151 214.206C146.087 214.064 146.975 213.763 147.817 213.295C148.661 212.825 149.383 212.172 149.993 211.329C150.602 210.484 150.905 209.361 150.907 207.961C150.905 206.089 149.993 204.311 148.169 202.626C146.345 200.939 144.261 200.1 141.924 200.1C139.862 200.1 138.275 200.194 137.152 200.38C136.03 200.568 135.139 200.755 134.484 200.942C133.832 201.13 133.338 201.317 133.01 201.505C132.682 201.693 132.329 201.784 131.956 201.784C131.018 201.784 130.553 201.552 130.553 201.084C130.553 200.896 130.695 200.593 130.973 200.172C131.254 199.749 131.491 199.443 131.676 199.259L141.63 189.549ZM115.378 34.153C116.595 34.153 117.365 22.9346 119 23.4986C120.639 24.0606 122.5 30.5 123.5 32C124.5 33.5 126.96 39.46 127.94 40.821C128.92 42.176 129.416 43.699 129.416 45.384C129.416 46.507 129.183 47.957 128.714 49.738C128.245 51.513 127.476 53.2479 126.401 54.9289C125.325 56.6159 123.874 58.0639 122.047 59.2829C120.223 60.4999 117.998 61.1039 115.381 61.1039C113.883 61.1039 112.317 60.8939 110.678 60.4719C109.037 60.0509 107.567 59.4199 106.256 58.5769C104.943 57.7349 103.846 56.6809 102.955 55.4189C102.064 54.1549 101.621 52.682 101.621 50.997C101.621 49.031 101.973 47.043 102.676 45.03C103.377 43.015 104.362 41.217 105.621 39.626C106.885 38.035 108.359 36.725 110.045 35.695C111.731 34.664 113.507 34.153 115.378 34.153ZM108.22 40.747C108.126 41.215 108.032 41.636 107.941 42.011C107.753 42.949 107.66 43.789 107.66 44.537C107.66 45.848 108.105 47.088 108.994 48.258C109.883 49.427 111.006 50.457 112.363 51.346C113.718 52.239 115.217 52.9599 116.855 53.5219C118.494 54.0849 120.058 54.3679 121.556 54.3679C121.744 54.3679 122.072 54.1799 122.536 53.8049C123.007 53.4309 123.237 52.636 123.237 51.419C123.237 50.202 122.747 48.962 121.762 47.699C120.782 46.432 119.539 45.289 118.041 44.26C116.543 43.231 114.906 42.388 113.127 41.734C111.356 41.077 109.716 40.747 108.22 40.747ZM88.706 56.8909C88.894 56.8909 89.223 57.0349 89.688 57.3119C90.438 57.8749 91.185 58.3879 91.933 58.8559C92.683 59.3279 93.431 59.7939 94.179 60.2599C98.112 62.6969 101.761 64.5879 105.13 65.9479C108.498 67.3019 111.587 67.9799 114.394 67.9799C117.39 67.9799 120.851 67.4449 124.784 66.3689C128.715 65.2929 132.459 63.3049 136.013 60.4029C136.201 60.2149 136.503 59.9119 136.925 59.4899C137.347 59.0689 137.767 58.6719 138.19 58.2969C138.612 57.9229 139.007 57.5959 139.382 57.3159C139.757 57.0379 140.035 56.8939 140.224 56.8939C140.412 56.8939 140.552 57.0379 140.647 57.3159C140.741 57.5959 140.788 57.8789 140.788 58.1609C140.788 58.6289 140.366 59.4249 139.524 60.5469C138.681 61.6699 138.073 62.4659 137.698 62.9339C135.452 66.0229 133.345 68.5489 131.383 70.5149C129.418 72.4799 127.525 74.0009 125.696 75.0779C123.872 76.1549 122.047 76.9019 120.22 77.3239C118.397 77.7459 116.451 77.9559 114.394 77.9559C112.243 77.9559 110.231 77.7679 108.36 77.3929C106.487 77.0189 104.638 76.2699 102.815 75.1469C100.989 74.0239 99.14 72.4799 97.269 70.5149C95.397 68.5489 93.431 66.0229 91.373 62.9339C90.998 62.3719 90.393 61.5539 89.551 60.4769C88.705 59.4039 88.285 58.4919 88.285 57.7429C88.285 57.5549 88.332 57.3689 88.428 57.1799C88.519 56.9869 88.614 56.8909 88.706 56.8909Z" fill="white"/>
<path d="M188.101 119.308C188.749 119.308 189.301 119.448 189.757 119.728C190.213 120 190.565 120.396 190.813 120.916C191.061 121.436 191.185 122.068 191.185 122.812C191.185 123.764 191.037 124.684 190.741 125.572C190.453 126.46 190.045 127.256 189.517 127.96C188.997 128.656 188.389 129.212 187.693 129.628C187.005 130.036 186.257 130.24 185.449 130.24C184.809 130.24 184.257 130.104 183.793 129.832C183.337 129.552 182.985 129.152 182.737 128.632C182.489 128.104 182.365 127.472 182.365 126.736C182.365 125.776 182.509 124.856 182.797 123.976C183.093 123.088 183.501 122.296 184.021 121.6C184.549 120.896 185.157 120.34 185.845 119.932C186.541 119.516 187.293 119.308 188.101 119.308ZM185.473 129.484C185.889 129.484 186.293 129.34 186.685 129.052C187.077 128.764 187.441 128.376 187.777 127.888C188.113 127.392 188.409 126.836 188.665 126.22C188.921 125.596 189.121 124.944 189.265 124.264C189.409 123.584 189.481 122.92 189.481 122.272C189.481 121.52 189.369 120.964 189.145 120.604C188.921 120.244 188.565 120.064 188.077 120.064C187.661 120.064 187.257 120.208 186.865 120.496C186.473 120.784 186.109 121.172 185.773 121.66C185.437 122.148 185.141 122.704 184.885 123.328C184.629 123.952 184.429 124.604 184.285 125.284C184.141 125.964 184.069 126.628 184.069 127.276C184.069 128.02 184.181 128.576 184.405 128.944C184.629 129.304 184.985 129.484 185.473 129.484ZM205.579 129.124L205.567 128.692C205.831 128.7 206.127 128.648 206.455 128.536C206.783 128.416 207.127 128.24 207.487 128.008C207.855 127.776 208.223 127.488 208.591 127.144L208.915 127.48C208.339 128.168 207.807 128.716 207.319 129.124C206.831 129.532 206.379 129.82 205.963 129.988C205.555 130.156 205.167 130.24 204.799 130.24C204.279 130.24 203.959 130.16 203.839 130C203.719 129.848 203.751 129.548 203.935 129.1L206.515 122.44C206.603 122.232 206.667 122.052 206.707 121.9C206.747 121.74 206.767 121.596 206.767 121.468C206.767 121.26 206.699 121.096 206.563 120.976C206.435 120.856 206.207 120.796 205.879 120.796C205.503 120.796 205.099 120.944 204.667 121.24C204.243 121.536 203.815 121.948 203.383 122.476C202.951 122.996 202.547 123.596 202.171 124.276C201.795 124.956 201.471 125.68 201.199 126.448L200.047 130H198.367L200.899 122.356C200.939 122.236 200.975 122.124 201.007 122.02C201.039 121.916 201.063 121.816 201.079 121.72C201.095 121.624 201.103 121.536 201.103 121.456C201.103 121.248 201.039 121.088 200.911 120.976C200.783 120.856 200.567 120.796 200.263 120.796C199.879 120.796 199.467 120.952 199.027 121.264C198.595 121.576 198.167 122.012 197.743 122.572C197.319 123.124 196.919 123.764 196.543 124.492C196.175 125.22 195.863 125.992 195.607 126.808L194.611 130H192.955L195.751 120.892C195.727 120.876 195.699 120.864 195.667 120.856C195.643 120.84 195.611 120.832 195.571 120.832C195.299 120.832 195.023 120.892 194.743 121.012C194.471 121.132 194.191 121.348 193.903 121.66C193.615 121.972 193.311 122.412 192.991 122.98L192.595 122.812C192.947 121.916 193.323 121.216 193.723 120.712C194.123 120.2 194.543 119.84 194.983 119.632C195.423 119.424 195.863 119.32 196.303 119.32C196.463 119.32 196.615 119.332 196.759 119.356C196.911 119.372 197.059 119.396 197.203 119.428C197.355 119.46 197.503 119.5 197.647 119.548L196.291 123.928H196.195C196.731 123.016 197.219 122.26 197.659 121.66C198.099 121.06 198.511 120.588 198.895 120.244C199.287 119.9 199.659 119.66 200.011 119.524C200.371 119.38 200.731 119.308 201.091 119.308C201.723 119.308 202.175 119.428 202.447 119.668C202.719 119.908 202.855 120.232 202.855 120.64C202.855 120.896 202.811 121.188 202.723 121.516C202.643 121.844 202.535 122.228 202.399 122.668L202.147 123.46H202.039C202.503 122.684 202.943 122.032 203.359 121.504C203.775 120.968 204.175 120.54 204.559 120.22C204.943 119.892 205.315 119.656 205.675 119.512C206.035 119.368 206.391 119.296 206.743 119.296C207.391 119.296 207.847 119.424 208.111 119.68C208.375 119.928 208.507 120.268 208.507 120.7C208.507 120.964 208.463 121.268 208.375 121.612C208.295 121.956 208.163 122.368 207.979 122.848L205.579 129.124ZM198.343 134.404C197.935 134.404 197.603 134.268 197.347 133.996C197.091 133.732 196.963 133.412 196.963 133.036C196.963 132.636 197.099 132.3 197.371 132.028C197.643 131.756 197.987 131.62 198.403 131.62C198.819 131.62 199.151 131.748 199.399 132.004C199.647 132.268 199.771 132.592 199.771 132.976C199.771 133.376 199.639 133.712 199.375 133.984C199.111 134.264 198.767 134.404 198.343 134.404Z" fill="white"/>
<g clip-path="url(#clip0_3_2)">
<path d="M294.295 118.67C294.485 118.67 294.625 118.79 294.715 119.02C294.805 119.25 294.855 119.46 294.855 119.66C294.855 122.65 293.845 124.97 291.835 126.61C289.825 128.25 287.735 129.44 285.585 130.19L286.285 131.03C289.465 134.87 291.895 138.59 293.585 142.19C295.265 145.79 296.695 149.44 297.865 153.14C299.035 156.84 300.225 160.65 301.445 164.58C302.665 168.51 304.395 172.63 306.635 176.93L310.705 184.93V176.37C310.705 172.91 310.445 169.12 309.935 165C309.425 160.88 308.885 156.9 308.325 153.06C308.045 151.29 307.695 149.16 307.275 146.67C306.855 144.19 306.405 141.8 305.945 139.51C305.475 137.22 304.985 135.28 304.475 133.68C303.965 132.09 303.515 131.29 303.145 131.29C302.675 131.29 302.235 131.43 301.815 131.71C301.395 131.99 301.085 132.13 300.905 132.13C300.625 132.13 300.325 132.06 299.995 131.92C299.665 131.78 299.505 131.52 299.505 131.15C299.505 130.78 299.645 130.45 299.925 130.17C300.205 129.89 300.445 129.65 300.625 129.47L310.025 120.07C310.585 119.51 311.125 119.13 311.645 118.95C312.155 118.76 312.555 118.67 312.835 118.67H319.155C320.095 118.67 320.555 119.14 320.555 120.07C320.555 120.72 320.435 121.15 320.205 121.33C319.975 121.52 319.805 121.8 319.715 122.17C319.245 123.57 318.735 125.02 318.175 126.52C317.615 128.02 317.095 129.61 316.635 131.29C316.165 133.16 315.765 135.13 315.445 137.19C315.115 139.25 314.955 141.45 314.955 143.79V190.96C315.235 191.71 315.375 192.32 315.375 192.78C315.375 193.15 315.145 193.46 314.675 193.69C314.205 193.92 313.835 194.04 313.555 194.04C312.525 194.04 311.585 193.62 310.745 192.78C310.555 192.59 309.665 191.19 308.075 188.57C306.485 185.95 304.495 182.7 302.105 178.81C299.715 174.92 297.075 170.69 294.175 166.11C291.275 161.52 288.415 157.13 285.615 152.92C282.805 148.71 280.185 144.96 277.755 141.69C275.325 138.42 273.405 136.21 271.995 135.09C271.345 135.84 270.565 136.73 269.675 137.76C268.785 138.79 267.895 139.84 267.005 140.92C266.115 142 265.325 143.05 264.615 144.08C263.915 145.11 263.425 145.95 263.145 146.6C264.085 146.41 264.785 146.32 265.255 146.32C267.125 146.32 268.975 146.72 270.795 147.51C272.615 148.31 274.235 149.38 275.635 150.74C277.035 152.09 278.185 153.71 279.075 155.58C279.965 157.45 280.405 159.46 280.405 161.62C280.405 163.4 279.965 165.67 279.075 168.43C278.185 171.19 276.805 173.88 274.935 176.5C273.065 179.12 270.725 181.37 267.915 183.24C265.105 185.11 261.735 186.05 257.805 186.05C254.995 186.05 252.165 185.35 249.315 183.95C246.455 182.55 243.885 180.55 241.595 177.98C239.305 175.41 237.455 172.32 236.055 168.71C234.655 165.11 233.945 161.06 233.945 156.57C233.945 153.85 234.295 150.91 234.995 147.72C235.695 144.54 236.605 141.31 237.735 138.03C237.925 137.56 238.175 136.93 238.505 136.13C238.835 135.33 238.995 134.57 238.995 133.82C238.995 133.07 238.835 132.46 238.505 131.99C238.175 131.52 237.685 131.29 237.035 131.29C236.565 131.29 236.195 131.43 235.915 131.71C235.635 131.99 235.405 132.13 235.215 132.13C234.935 132.13 234.605 132.04 234.235 131.85C233.865 131.66 233.675 131.33 233.675 130.87C233.675 130.68 233.835 130.43 234.165 130.1C234.495 129.77 234.745 129.42 234.935 129.04L241.115 120.2C242.055 119.17 242.895 118.65 243.645 118.65H257.685C257.875 118.65 258.015 118.77 258.105 119C258.195 119.23 258.245 119.44 258.245 119.63C258.245 122.35 257.425 124.43 255.785 125.87C254.145 127.32 252.115 128.65 249.675 129.87C248.275 130.9 246.985 132.31 245.815 134.08C244.645 135.85 243.685 137.8 242.935 139.9C242.185 142.01 241.605 144.23 241.185 146.57C240.765 148.91 240.555 151.11 240.555 153.17C240.555 155.88 240.885 158.52 241.535 161.1C242.185 163.67 243.355 166.01 245.045 168.12C246.725 170.22 249.025 171.91 251.925 173.17C254.825 174.43 258.475 175.07 262.875 175.07C263.995 175.07 265.235 174.93 266.595 174.65C267.955 174.37 269.215 173.92 270.385 173.32C271.555 172.71 272.565 171.94 273.405 171.01C274.245 170.07 274.665 168.95 274.665 167.64C274.665 165.3 273.215 163.29 270.315 161.6C267.415 159.91 263.015 159.07 257.125 159.07C256.095 159.07 255.065 159.19 254.035 159.42C253.005 159.65 251.925 159.96 250.805 160.33C251.175 159.02 251.625 157.68 252.135 156.33C252.645 154.97 253.215 153.66 253.815 152.4C254.425 151.14 255.145 150.01 255.995 149.03C256.835 148.05 257.815 147.28 258.945 146.72C259.785 144.01 260.795 141.36 261.965 138.79C263.135 136.22 264.565 133.71 266.245 131.28H264.845C261.665 131.28 260.075 130.95 260.075 130.3C260.075 130.11 260.145 129.88 260.285 129.6C260.425 129.32 260.585 129.04 260.775 128.76L267.375 118.65H294.325L294.295 118.67ZM277.025 104.91C277.025 103.6 277.305 102.08 277.865 100.35C278.425 98.62 279.175 96.91 280.115 95.23C281.055 93.55 282.055 92 283.135 90.6C284.215 89.2 285.315 88.21 286.435 87.65C288.495 86.53 291.135 85.47 294.365 84.49C297.595 83.51 301.085 82.57 304.825 81.68C308.565 80.79 312.425 79.86 316.405 78.87C320.385 77.88 324.195 76.79 327.845 75.57C328.685 75.29 329.555 74.87 330.445 74.3C331.335 73.74 332.195 73.18 333.045 72.61C333.885 72.05 334.655 71.56 335.365 71.13C336.065 70.71 336.555 70.5 336.835 70.5C337.395 70.5 337.675 70.83 337.675 71.48C337.675 73.17 336.695 74.99 334.725 76.96C332.755 78.93 330.345 80.87 327.495 82.79C324.645 84.71 321.595 86.46 318.375 88.05C315.145 89.64 312.265 90.86 309.745 91.7C307.125 92.54 304.105 93.17 300.685 93.6C297.265 94.02 294.035 94.63 290.995 95.42C287.955 96.22 285.385 97.36 283.275 98.86C281.165 100.36 280.115 102.6 280.115 105.6C280.115 106.35 280.165 107.33 280.255 108.54C280.345 109.76 280.445 110.88 280.535 111.91C280.535 112.29 280.605 112.64 280.745 112.96C280.885 113.29 280.955 113.55 280.955 113.73C280.955 114.85 280.165 115.41 278.565 115.41C278.095 115.41 277.585 115.18 277.025 114.71C276.465 114.24 275.855 113.68 275.205 113.02C274.555 112.37 273.945 111.71 273.385 111.05C272.825 110.39 272.355 109.88 271.985 109.51C270.305 107.82 268.425 106.05 266.375 104.18C264.325 102.31 262.145 100.58 259.845 98.99C257.555 97.4 255.165 96.06 252.685 94.99C250.205 93.91 247.795 93.38 245.455 93.38C244.805 93.38 244.125 93.59 243.415 94.02C242.715 94.44 242.265 94.65 242.085 94.65C241.705 94.65 241.435 94.51 241.245 94.23C241.055 93.95 240.965 93.67 240.965 93.38C240.965 93.01 241.245 92.14 241.805 90.78C242.365 89.43 243.095 88 243.985 86.5C244.875 85 245.875 83.67 247.005 82.5C248.135 81.33 249.205 80.75 250.235 80.75C252.575 80.75 254.825 81.45 256.975 82.85C259.125 84.25 261.165 86.01 263.085 88.11C265.005 90.21 266.785 92.51 268.415 94.99C270.055 97.47 271.525 99.79 272.835 101.94L277.045 108.96V104.9L277.025 104.91ZM276.885 53.95C278.285 53.95 279.785 54.21 281.375 54.72C282.965 55.24 284.465 55.99 285.865 56.97C287.265 57.95 288.435 59.2 289.375 60.69C290.315 62.18 290.775 63.92 290.775 65.88C290.775 67.28 290.445 68.97 289.795 70.93C289.145 72.9 288.205 74.79 286.985 76.62C285.765 78.44 284.295 79.99 282.565 81.25C280.835 82.51 278.935 83.15 276.875 83.15C275.285 83.15 273.625 82.94 271.895 82.51C270.165 82.09 268.575 81.41 267.125 80.48C265.675 79.54 264.485 78.38 263.545 76.97C262.605 75.57 262.145 73.88 262.145 71.92C262.145 70.7 262.495 69.09 263.195 67.08C263.895 65.07 264.875 63.08 266.145 61.11C267.405 59.14 268.955 57.46 270.775 56.05C272.605 54.66 274.635 53.95 276.885 53.95ZM269.165 61.25C268.975 61.72 268.765 62.37 268.535 63.22C268.305 64.06 268.185 64.67 268.185 65.04C268.185 66.44 268.675 67.82 269.655 69.18C270.635 70.54 271.905 71.75 273.445 72.83C274.985 73.91 276.675 74.77 278.495 75.43C280.315 76.09 282.075 76.41 283.755 76.41C284.035 75.94 284.335 75.33 284.665 74.58C284.995 73.83 285.155 73.08 285.155 72.33C285.155 70.83 284.615 69.43 283.545 68.12C282.465 66.81 281.135 65.64 279.545 64.61C277.955 63.58 276.225 62.76 274.355 62.15C272.485 61.54 270.755 61.24 269.165 61.24V61.25Z" fill="white"/>
</g>
<path d="M367.591 129.436L368.863 125.5H369.163C368.547 126.412 367.991 127.172 367.495 127.78C367.007 128.388 366.563 128.872 366.163 129.232C365.763 129.584 365.391 129.836 365.047 129.988C364.711 130.132 364.387 130.204 364.075 130.204C363.643 130.204 363.267 130.124 362.947 129.964C362.627 129.804 362.379 129.552 362.203 129.208C362.027 128.856 361.939 128.404 361.939 127.852C361.939 127.228 362.059 126.54 362.299 125.788C362.539 125.036 362.871 124.292 363.295 123.556C363.719 122.82 364.215 122.144 364.783 121.528C365.351 120.912 365.967 120.42 366.631 120.052C367.295 119.676 367.983 119.488 368.695 119.488C369.159 119.488 369.547 119.576 369.859 119.752C370.171 119.92 370.451 120.18 370.699 120.532L370.267 121.144C370.187 120.928 370.035 120.744 369.811 120.592C369.587 120.432 369.303 120.352 368.959 120.352C368.391 120.352 367.847 120.536 367.327 120.904C366.815 121.264 366.339 121.736 365.899 122.32C365.467 122.904 365.087 123.532 364.759 124.204C364.439 124.868 364.191 125.512 364.015 126.136C363.839 126.752 363.751 127.272 363.751 127.696C363.751 128.056 363.847 128.324 364.039 128.5C364.239 128.668 364.487 128.752 364.783 128.752C365.047 128.752 365.375 128.644 365.767 128.428C366.167 128.204 366.583 127.892 367.015 127.492C367.447 127.092 367.855 126.612 368.239 126.052C368.631 125.492 368.951 124.88 369.199 124.216L370.663 119.68L372.007 119.548H372.379L369.283 129.124L369.079 128.68C369.335 128.72 369.635 128.688 369.979 128.584C370.323 128.48 370.687 128.304 371.071 128.056C371.455 127.808 371.835 127.504 372.211 127.144L372.523 127.492C371.651 128.516 370.891 129.232 370.243 129.64C369.595 130.04 369.003 130.24 368.467 130.24C368.115 130.24 367.859 130.164 367.699 130.012C367.547 129.868 367.511 129.676 367.591 129.436ZM375.638 126.82L374.654 130H373.022L377.666 114.736C377.522 114.608 377.378 114.488 377.234 114.376C377.09 114.264 376.93 114.16 376.754 114.064C376.586 113.968 376.386 113.876 376.154 113.788L376.25 113.512L379.598 112.888H379.838L376.442 124.012L376.286 123.988C376.662 123.348 377.054 122.748 377.462 122.188C377.878 121.628 378.302 121.136 378.734 120.712C379.166 120.28 379.61 119.944 380.066 119.704C380.53 119.464 380.998 119.344 381.47 119.344C382.142 119.344 382.606 119.488 382.862 119.776C383.118 120.064 383.246 120.436 383.246 120.892C383.246 121.148 383.206 121.436 383.126 121.756C383.046 122.068 382.93 122.424 382.778 122.824L380.33 129.124L380.318 128.692C380.582 128.7 380.878 128.648 381.206 128.536C381.534 128.416 381.882 128.24 382.25 128.008C382.618 127.776 382.982 127.488 383.342 127.144L383.678 127.48C383.102 128.168 382.566 128.716 382.07 129.124C381.582 129.532 381.13 129.82 380.714 129.988C380.306 130.156 379.922 130.24 379.562 130.24C379.042 130.24 378.722 130.16 378.602 130C378.482 129.848 378.51 129.548 378.686 129.1L381.266 122.488C381.346 122.28 381.41 122.092 381.458 121.924C381.506 121.748 381.53 121.592 381.53 121.456C381.53 121.256 381.462 121.096 381.326 120.976C381.198 120.848 380.962 120.784 380.618 120.784C380.226 120.784 379.79 120.948 379.31 121.276C378.838 121.604 378.362 122.052 377.882 122.62C377.41 123.188 376.978 123.832 376.586 124.552C376.194 125.272 375.878 126.028 375.638 126.82Z" fill="white"/>
<g clip-path="url(#clip1_3_2)">
<path d="M469.325 67.63C469.515 67.63 469.655 67.75 469.745 67.98C469.835 68.21 469.885 68.42 469.885 68.62C469.885 71.61 468.875 73.93 466.865 75.57C464.855 77.21 462.765 78.4 460.615 79.15L461.315 79.99C464.495 83.83 466.925 87.55 468.615 91.15C470.295 94.75 471.725 98.4 472.895 102.1C474.065 105.8 475.255 109.61 476.475 113.54C477.695 117.47 479.425 121.59 481.665 125.89L485.735 133.89V125.33C485.735 121.87 485.475 118.08 484.965 113.96C484.455 109.84 483.915 105.86 483.355 102.02C483.075 100.25 482.725 98.12 482.305 95.63C481.885 93.15 481.435 90.76 480.975 88.47C480.505 86.18 480.015 84.24 479.505 82.64C478.995 81.05 478.545 80.25 478.175 80.25C477.705 80.25 477.265 80.39 476.845 80.67C476.425 80.95 476.115 81.09 475.935 81.09C475.655 81.09 475.355 81.02 475.025 80.88C474.695 80.74 474.535 80.48 474.535 80.11C474.535 79.74 474.675 79.41 474.955 79.13C475.235 78.85 475.475 78.61 475.655 78.43L485.055 69.03C485.615 68.47 486.155 68.09 486.675 67.91C487.185 67.72 487.585 67.63 487.865 67.63H494.185C495.125 67.63 495.585 68.1 495.585 69.03C495.585 69.68 495.465 70.11 495.235 70.29C495.005 70.48 494.835 70.76 494.745 71.13C494.275 72.53 493.765 73.98 493.205 75.48C492.645 76.98 492.125 78.57 491.665 80.25C491.195 82.12 490.795 84.09 490.475 86.15C490.145 88.21 489.985 90.41 489.985 92.75V139.92C490.265 140.67 490.405 141.28 490.405 141.74C490.405 142.11 490.175 142.42 489.705 142.65C489.235 142.88 488.865 143 488.585 143C487.555 143 486.615 142.58 485.775 141.74C485.585 141.55 484.695 140.15 483.105 137.53C481.515 134.91 479.525 131.66 477.135 127.77C474.745 123.88 472.105 119.65 469.205 115.07C466.305 110.48 463.445 106.09 460.645 101.88C457.835 97.67 455.215 93.92 452.785 90.65C450.355 87.38 448.435 85.17 447.025 84.05C446.375 84.8 445.595 85.69 444.705 86.72C443.815 87.75 442.925 88.8 442.035 89.88C441.145 90.96 440.355 92.01 439.645 93.04C438.945 94.07 438.455 94.91 438.175 95.56C439.115 95.37 439.815 95.28 440.285 95.28C442.155 95.28 444.005 95.68 445.825 96.47C447.645 97.27 449.265 98.34 450.665 99.7C452.065 101.05 453.215 102.67 454.105 104.54C454.995 106.41 455.435 108.42 455.435 110.58C455.435 112.36 454.995 114.63 454.105 117.39C453.215 120.15 451.835 122.84 449.965 125.46C448.095 128.08 445.755 130.33 442.945 132.2C440.135 134.07 436.765 135.01 432.835 135.01C430.025 135.01 427.195 134.31 424.345 132.91C421.485 131.51 418.915 129.51 416.625 126.94C414.335 124.37 412.485 121.28 411.085 117.67C409.685 114.07 408.975 110.02 408.975 105.53C408.975 102.81 409.325 99.87 410.025 96.68C410.725 93.5 411.635 90.27 412.765 86.99C412.955 86.52 413.205 85.89 413.535 85.09C413.865 84.29 414.025 83.53 414.025 82.78C414.025 82.03 413.865 81.42 413.535 80.95C413.205 80.48 412.715 80.25 412.065 80.25C411.595 80.25 411.225 80.39 410.945 80.67C410.665 80.95 410.435 81.09 410.245 81.09C409.965 81.09 409.635 81 409.265 80.81C408.895 80.62 408.705 80.29 408.705 79.83C408.705 79.64 408.865 79.39 409.195 79.06C409.525 78.73 409.775 78.38 409.965 78L416.115 69.18C417.055 68.15 417.895 67.63 418.645 67.63H432.685C432.875 67.63 433.015 67.75 433.105 67.98C433.195 68.21 433.245 68.42 433.245 68.61C433.245 71.33 432.425 73.41 430.785 74.85C429.145 76.3 427.115 77.63 424.675 78.85C423.275 79.88 421.985 81.29 420.815 83.06C419.645 84.83 418.685 86.78 417.935 88.88C417.185 90.99 416.605 93.21 416.185 95.55C415.765 97.89 415.555 100.09 415.555 102.15C415.555 104.86 415.885 107.5 416.535 110.08C417.185 112.65 418.355 114.99 420.045 117.1C421.725 119.2 424.025 120.89 426.925 122.15C429.825 123.41 433.475 124.05 437.875 124.05C438.995 124.05 440.235 123.91 441.595 123.63C442.955 123.35 444.215 122.9 445.385 122.3C446.555 121.69 447.565 120.92 448.405 119.99C449.245 119.05 449.665 117.93 449.665 116.62C449.665 114.28 448.215 112.27 445.315 110.58C442.415 108.89 438.015 108.05 432.125 108.05C431.095 108.05 430.065 108.17 429.035 108.4C428.005 108.63 426.925 108.94 425.805 109.31C426.175 108 426.625 106.66 427.135 105.31C427.645 103.95 428.215 102.64 428.815 101.38C429.425 100.12 430.145 98.99 430.995 98.01C431.835 97.03 432.815 96.26 433.945 95.7C434.785 92.99 435.795 90.34 436.965 87.77C438.135 85.2 439.565 82.69 441.245 80.26H439.845C436.665 80.26 435.075 79.93 435.075 79.28C435.075 79.09 435.145 78.86 435.285 78.58C435.425 78.3 435.585 78.02 435.775 77.74L442.365 67.64H469.315L469.325 67.63Z" fill="white"/>
<path d="M492.115 180.29C491.645 179.17 490.965 178.09 490.075 177.06C489.185 176.03 488.085 175.09 486.775 174.25C485.465 173.41 483.875 172.73 482.005 172.21C480.135 171.7 477.935 171.44 475.405 171.44C474.375 171.44 473.275 171.63 472.105 172C470.935 172.37 469.885 172.79 468.945 173.27C468.295 173.65 467.755 173.88 467.335 173.97C466.915 174.06 466.605 174.11 466.425 174.11C466.145 174.11 466.005 173.92 466.005 173.55C466.005 172.33 466.385 171 467.125 169.55C467.875 168.1 468.955 166.77 470.355 165.55C471.755 164.33 473.445 163.33 475.415 162.53C477.375 161.73 479.535 161.34 481.875 161.34C482.345 160.59 483.065 159.52 484.055 158.11C485.035 156.71 485.535 155.49 485.535 154.46C485.535 153.06 484.995 151.94 483.925 151.09C482.845 150.25 481.515 149.59 479.925 149.13C478.335 148.66 476.605 148.33 474.725 148.15C472.855 147.96 471.125 147.87 469.535 147.87C468.595 147.87 467.495 147.92 466.235 148.01C464.965 148.11 463.775 148.34 462.655 148.71C461.535 149.08 460.575 149.57 459.775 150.18C458.975 150.79 458.585 151.66 458.585 152.78C458.585 154.28 458.815 155.61 459.285 156.78C459.755 157.95 460.265 159 460.835 159.94C461.395 160.88 461.915 161.74 462.385 162.54C462.855 163.33 463.085 164.06 463.085 164.72C463.085 165.47 462.755 166.33 462.105 167.32C461.445 168.3 460.705 169.22 459.855 170.05C459.015 170.89 458.145 171.62 457.255 172.23C456.365 172.84 455.685 173.14 455.215 173.14C455.025 173.14 454.935 172.86 454.935 172.3C454.935 171.93 454.955 171.34 455.005 170.55C455.055 169.76 455.075 169.08 455.075 168.51C455.075 167.86 454.915 167.11 454.585 166.26C454.255 165.42 453.885 164.53 453.465 163.59C453.045 162.65 452.665 161.67 452.345 160.64C452.015 159.61 451.855 158.63 451.855 157.69C451.855 155.44 452.395 153.13 453.465 150.74C454.535 148.35 455.915 146.2 457.605 144.28C459.285 142.36 461.185 140.79 463.295 139.58C465.405 138.36 467.485 137.76 469.545 137.76H479.095C485.085 137.76 492.405 138.52 493.395 139.58C494.385 140.64 488.73 142.66 489 143.5C490.5 144 491.085 147.74 491.225 148.58C491.365 149.42 491.435 150.17 491.435 150.83C491.435 152.79 490.785 154.83 489.465 156.93C488.155 159.04 486.945 160.74 485.815 162.05C487.685 162.42 489.225 163.2 490.445 164.37C491.665 165.54 492.645 166.92 493.395 168.51C494.145 170.1 494.655 171.83 494.935 173.7C495.215 175.57 495.775 178.84 495.495 179.17C495.215 179.5 494.475 180.65 492.115 180.28V180.29Z" fill="white"/>
</g>
<defs>
<clipPath id="clip0_3_2">
<rect width="104.03" height="140.1" fill="white" transform="translate(233.645 53.95)"/>
</clipPath>
<clipPath id="clip1_3_2">
<rect width="86.9" height="112.74" fill="white" transform="translate(408.675 67.63)"/>
</clipPath>
</defs>
</svg>
